<svg height="480pt" viewBox="0 -72 480 480" width="480pt" xmlns="http://www.w3.org/2000/svg" xmlns:xlink="http://www.w3.org/1999/xlink"><linearGradient id="a"><stop offset="0" stop-color="#ff49d6"/><stop offset="1" stop-color="#7bdfff"/></linearGradient><linearGradient id="b" gradientUnits="userSpaceOnUse" x1="0" x2="483.256" xlink:href="#a" y1="96.006649" y2="96.006649"/><linearGradient id="c" gradientUnits="userSpaceOnUse" x1="0" x2="483.256" xlink:href="#a" y1="168.006649" y2="168.006649"/><path d="m288 128.007812c17.671875 0 32-14.328124 32-32 0-17.675781-14.328125-32-32-32s-32 14.324219-32 32c0 17.671876 14.328125 32 32 32zm0-48c8.835938 0 16 7.164063 16 16 0 8.835938-7.164062 16-16 16s-16-7.164062-16-16c0-8.835937 7.164062-16 16-16zm0 0" fill="url(#b)"/><path d="m470.0625.246094-127.03125 31.761718h-206.0625l-127.03125-31.761718c-2.390625-.59375-4.921875-.058594-6.863281 1.457031-1.9375 1.515625-3.074219 3.839844-3.074219 6.304687v320c0 2.460938 1.136719 4.785157 3.074219 6.300782 1.941406 1.515625 4.472656 2.054687 6.863281 1.457031l127.03125-31.757813h206.0625l127.03125 31.757813c2.390625.597656 4.921875.058594 6.863281-1.457031 1.9375-1.515625 3.074219-3.839844 3.074219-6.300782v-320c0-2.464843-1.136719-4.789062-3.078125-6.304687-1.933594-1.527344-4.46875-2.066406-6.859375-1.457031zm-326.0625 47.761718h192v107.75l-8.160156-15.480468c-1.511719-2.453125-4.191406-3.949219-7.074219-3.949219-2.886719 0-5.5625 1.496094-7.078125 3.949219l-30.984375 58.800781-36.144531-82.269531c-1.273438-2.914063-4.148438-4.792969-7.328125-4.792969-3.175781 0-6.050781 1.878906-7.328125 4.792969l-34.742188 79.117187-29.320312-55.648437c-1.382813-2.625-4.109375-4.265625-7.074219-4.265625-2.96875 0-5.691406 1.640625-7.078125 4.265625l-9.6875 18.386718zm146.222656 208h-101.976562l50.953125-116.105468zm-162.222656 33.75-112 28v-299.503906l112 28v142.769532l-37.550781 71.253906c-1.308594 2.480468-1.21875 5.460937.226562 7.859375 1.445313 2.398437 4.042969 3.867187 6.84375 3.871093h30.480469zm-17.214844-33.75 50.015625-94.839843 28.167969 53.460937-18.199219 41.378906zm225.214844 32h-192v-16h192zm-28.296875-32-16.800781-38.210937 29.898437-56.628906 49.941407 94.839843zm156.296875 61.75-112-28v-17.75h32c2.804688 0 5.402344-1.46875 6.851562-3.867187 1.449219-2.398437 1.535157-5.382813.226563-7.863281l-39.078125-74.160156v-139.863282l112-28zm0 0" fill="url(#c)"/></svg>